# xmcd
#
# Track frame offsets: 
#        150
#        22973
#        45931
#        69487
#        94948
#        120490
#        144342
#        162495
#        187167
#        202911
#
# Disc length: 3075 seconds
#
# Revision: 0
# Processed by: cddbd v1.5.2PL0 Copyright (c) Steve Scherf et al.
# Submitted via: ExactAudioCopy v0.95b4
#
DISCID=810c010a
DTITLE=Wizards' Hymn - Hymnal
DYEAR=2006
DGENRE=Metal
TTITLE0=Wings Of Time
TTITLE1=Olden Story Tells
TTITLE2=The Glory Of The Desert
TTITLE3=Firestorm
TTITLE4=Through The Wilderness
TTITLE5=The Circle Of Fate
TTITLE6=A Drop In The Ocean
TTITLE7=Live My Life
TTITLE8=Sun In The Night
TTITLE9=The Call From The Unknown
EXTD=
EXTT0=
EXTT1=
EXTT2=
EXTT3=
EXTT4=
EXTT5=
EXTT6=
EXTT7=
EXTT8=
EXTT9=
PLAYORDER=
